<svg xmlns="http://www.w3.org/2000/svg" viewBox="0 0 91.51 14.21"><defs><style>.cls-1,.cls-3{fill:#131e2b;}.cls-2{fill:none;}.cls-3{stroke:#fff;stroke-miterlimit:10;stroke-width:0.04px;}</style></defs><title>bein</title><g id="Calque_2" data-name="Calque 2"><g id="Calque_4" data-name="Calque 4"><path class="cls-1" d="M74.59,7.06a3.47,3.47,0,0,0-5.82-2.45,3.37,3.37,0,0,0-.92,2.45v5.13a.92.92,0,1,0,1.83,0V10.43H71l1.36,2.24a.92.92,0,0,0,.79.44.92.92,0,0,0,.78-1.39l-1-1.72A3.39,3.39,0,0,0,74.59,7.06Zm-1.84,0A1.54,1.54,0,0,1,71.22,8.6H69.68V7.06a1.35,1.35,0,0,1,1.54-1.54A1.54,1.54,0,0,1,72.76,7.06Z"/><path class="cls-1" d="M62.79,3.69A4.71,4.71,0,1,0,67.5,8.4,4.72,4.72,0,0,0,62.79,3.69ZM65.67,8.4a2.88,2.88,0,1,1-2.88-2.88A2.88,2.88,0,0,1,65.67,8.4Z"/><path class="cls-1" d="M54.62,3.69a3.37,3.37,0,0,0-2.45.92,3.37,3.37,0,0,0-.92,2.45v5.13a.92.92,0,1,0,1.83,0V10.43h1.54a3.37,3.37,0,0,0,0-6.75Zm1.54,3.37A1.54,1.54,0,0,1,54.62,8.6H53.08V7.06a1.35,1.35,0,0,1,1.54-1.54A1.54,1.54,0,0,1,56.16,7.06Z"/><path class="cls-1" d="M80.29,4H75.51a.92.92,0,1,0,0,1.83H77v6.35a.92.92,0,0,0,1.84,0V5.85h1.47a.92.92,0,0,0,0-1.83Z"/><path class="cls-1" d="M50,8.11a4.37,4.37,0,0,0-2.37-.72c-1-.06-1.32-.28-1.44-.4a.37.37,0,0,1-.09-.3c0-.74.55-1.19,1.46-1.19a1.55,1.55,0,0,1,1.12.42,1.14,1.14,0,0,1,.31.85.92.92,0,0,0,.89.94h0a.91.91,0,0,0,.91-.89A2.94,2.94,0,0,0,50,4.65a3.39,3.39,0,0,0-2.43-1,3.45,3.45,0,0,0-2.34.82,2.88,2.88,0,0,0-1,2.19,2.19,2.19,0,0,0,.92,1.88,4.42,4.42,0,0,0,2.33.67c1.33.08,1.6.49,1.6.82a1,1,0,0,1-.66,1,2.38,2.38,0,0,1-.9.18,1.71,1.71,0,0,1-1.25-.51.86.86,0,0,1-.22-.69.92.92,0,0,0-.8-1h-.11a.92.92,0,0,0-.91.81A2.65,2.65,0,0,0,45,11.94a3.54,3.54,0,0,0,2.62,1.13A3.63,3.63,0,0,0,50,12.25,2.82,2.82,0,0,0,51,10,2.32,2.32,0,0,0,50,8.11Z"/><path class="cls-1" d="M86.79,8.18a4.37,4.37,0,0,0-2.37-.72c-1-.06-1.32-.28-1.44-.4a.37.37,0,0,1-.09-.3c0-.74.55-1.19,1.47-1.19A1.55,1.55,0,0,1,85.48,6a1.14,1.14,0,0,1,.31.85.92.92,0,0,0,.89.94h0a.91.91,0,0,0,.91-.89,2.94,2.94,0,0,0-.83-2.18,3.39,3.39,0,0,0-2.43-1A3.45,3.45,0,0,0,82,4.55a2.88,2.88,0,0,0-1,2.19A2.19,2.19,0,0,0,82,8.61a4.42,4.42,0,0,0,2.33.67c1.33.08,1.6.49,1.6.82a1,1,0,0,1-.66,1,2.38,2.38,0,0,1-.9.18,1.71,1.71,0,0,1-1.25-.51.86.86,0,0,1-.22-.69.92.92,0,0,0-.8-1H82a.92.92,0,0,0-.91.81A2.65,2.65,0,0,0,81.74,12a3.54,3.54,0,0,0,2.62,1.13,3.63,3.63,0,0,0,2.41-.81,2.82,2.82,0,0,0,1-2.21A2.32,2.32,0,0,0,86.79,8.18Z"/><path class="cls-2" d="M41.47,10.36a3.57,3.57,0,0,1-2.37,3.3H87.3A3.63,3.63,0,0,0,90,12.58,3.49,3.49,0,0,0,91,10.33V.55H41.47Z"/><path class="cls-2" d="M41.47,10.36a3.57,3.57,0,0,1-2.37,3.3H87.3A3.63,3.63,0,0,0,90,12.58,3.49,3.49,0,0,0,91,10.33V.55H41.47Z"/><path class="cls-2" d="M17.82,3.74a4.65,4.65,0,1,0,3.94,7.13.78.78,0,0,0-.66-1.2.79.79,0,0,0-.67.36,3.09,3.09,0,1,1,.37-2.42H17.24a.78.78,0,0,0,0,1.56h4.45a.78.78,0,0,0,.78-.78A4.66,4.66,0,0,0,17.82,3.74Z"/><path class="cls-2" d="M41.47,10.36a3.57,3.57,0,0,1-2.37,3.3H87.3A3.63,3.63,0,0,0,90,12.58,3.49,3.49,0,0,0,91,10.33V.55H41.47Z"/><path class="cls-3" d="M0,0V10.53a3.7,3.7,0,0,0,3.72,3.66h84A3.83,3.83,0,0,0,90.5,13a4,4,0,0,0,1-2.68V0Zm8,13A4.66,4.66,0,0,1,3.4,8.39V1.85A.78.78,0,1,1,5,1.85V4.92A4.65,4.65,0,1,1,8.06,13ZM21.69,9.18H17.24a.78.78,0,0,1,0-1.56h3.57A3.09,3.09,0,1,0,20.44,10a.79.79,0,0,1,.67-.36.78.78,0,0,1,.66,1.2,4.65,4.65,0,1,1,.71-2.47A.78.78,0,0,1,21.69,9.18Zm3.66,2.74a1.2,1.2,0,0,1-2.4,0v-7a1.2,1.2,0,0,1,2.4,0Zm13.08-1.84a3,3,0,0,1-5.65,1.55L29.5,6.48h0a.66.66,0,0,0-.57-.35.64.64,0,0,0-.64.64v5.15a1.2,1.2,0,1,1-2.39,0V6.77a3,3,0,0,1,5.69-1.48l3.26,5.11a.65.65,0,0,0,.56.32.64.64,0,0,0,.64-.64V4.93a1.2,1.2,0,1,1,2.39,0ZM91,10.33A3.49,3.49,0,0,1,90,12.58a3.63,3.63,0,0,1-2.72,1.08H39.1a3.57,3.57,0,0,0,2.37-3.3V.55H91Z"/><path class="cls-1" d="M8.06,5.31a3.09,3.09,0,1,0,3.09,3.09A3.09,3.09,0,0,0,8.06,5.31Z"/><path class="cls-3" d="M8.06,5.31a3.09,3.09,0,1,0,3.09,3.09A3.09,3.09,0,0,0,8.06,5.31Z"/></g></g></svg>