<svg xmlns="http://www.w3.org/2000/svg" viewBox="0 0 34.991 34.991"><defs><style>.a{fill:#131e2b;fill-rule:evenodd;}</style></defs><title>Orange</title><path class="a" d="M23.885,28.183l-.007-.012,0,.012Zm-1.066.224c-.435,0-.927.319-.927,1.366,0,.57.042,1.515.934,1.508.919,0,1-.949,1-1.561C23.825,28.995,23.484,28.407,22.819,28.407Zm-18.7-.077C3.171,28.33,3,29.183,3,29.8s.171,1.468,1.122,1.468,1.127-.858,1.127-1.468S5.072,28.33,4.121,28.33Zm7.55,2.442a.587.587,0,0,0,.574.625,1.819,1.819,0,0,0,1.179-.51V29.745C12.238,29.894,11.672,30.194,11.672,30.772ZM27.9,28.366a.918.918,0,0,0-.938.984h1.877A.885.885,0,0,0,27.9,28.366ZM0,0V34.991H34.991V0ZM4.121,32.341A2.3,2.3,0,0,1,1.739,29.8a2.306,2.306,0,0,1,2.382-2.545A2.311,2.311,0,0,1,6.511,29.8,2.309,2.309,0,0,1,4.121,32.341Zm5.956-3.858h-.06c-.555,0-1.162.084-1.356.511V32.2H7.383V27.379h1.2v.576a1.87,1.87,0,0,1,1.328-.674.981.981,0,0,1,.166.009ZM14.684,32.2H13.557l-.109-.419a2.838,2.838,0,0,1-1.6.477,1.334,1.334,0,0,1-1.428-1.4c0-1.083.992-1.652,3.041-1.888v-.259c0-.353-.271-.556-.759-.556a1.427,1.427,0,0,0-1.174.556l-.862-.5a2.375,2.375,0,0,1,2.061-.938c1.253,0,1.954.547,1.954,1.434Zm5.157.073H18.628V29.263c0-.573-.146-.826-.59-.826a1.8,1.8,0,0,0-1.143.513v3.323H15.689v-4.5l1.009-.143.113.552a2.587,2.587,0,0,1,1.585-.64,1.312,1.312,0,0,1,1.445,1.509Zm5.164-.264c0,.778-.062,2.05-2.269,2.069-.914,0-1.759-.365-1.923-1.155l1.2-.192c.047.225.19.451.872.451.628,0,.932-.3.932-1.025v-.541l-.015-.016a1.219,1.219,0,0,1-1.195.673c-1.08,0-1.925-.746-1.925-2.314,0-1.55.87-2.413,1.856-2.413.909,0,1.25.4,1.336.625l.1-.545h1.029Zm5.017-1.874H26.935c.007.877.373,1.318,1.091,1.318a1.181,1.181,0,0,0,1.047-.591l.9.5a2.243,2.243,0,0,1-2.058,1,2.1,2.1,0,0,1-2.178-2.4c0-1.541.825-2.42,2.159-2.42s2.129.85,2.129,2.358C30.024,29.979,30.022,30.054,30.022,30.136Zm1.087-4.371h-.491v1.377h-.262V25.765h-.5v-.21h1.255Zm2.085,1.377h-.263V25.813h-.009l-.528,1.329h-.166L31.7,25.813H31.7v1.329h-.253V25.555h.4l.466,1.207.475-1.207h.407Z"/></svg>